<svg width="60" height="60" fill="none" xmlns="http://www.w3.org/2000/svg"><g clip-path="url(#a)"><path d="M51.3 8.623C45.6 3.113 38.1 0 30.113 0 7.188 0-7.207 24.837 4.24 44.595L0 60l15.838-4.13c6.9 3.727 12.552 3.398 14.29 3.617 26.582 0 39.814-32.16 21.135-50.767l.037-.098Z" fill="#ECEFF1"/><path d="m30.167 54.377-.015-.002h-.04c-7.955 0-13.037-3.767-13.537-3.985L7.2 52.828l2.512-9.113-.597-.938a24.671 24.671 0 0 1-3.79-13.15c0-21.982 26.862-32.974 42.407-17.437 15.508 15.375 4.62 42.188-17.565 42.188Z" fill="#4CAF50"/><path d="m43.767 35.767-.022.188c-.753-.375-4.418-2.168-5.1-2.415-1.533-.568-1.1-.09-4.043 3.28-.437.487-.872.525-1.615.187-.75-.375-3.157-1.162-6.007-3.712-2.22-1.988-3.71-4.425-4.15-5.175-.733-1.265.8-1.445 2.195-4.085.25-.525.122-.938-.063-1.31-.187-.375-1.68-4.05-2.305-5.515-.6-1.46-1.217-1.275-1.68-1.275-1.44-.125-2.492-.105-3.42.86-4.035 4.435-3.017 9.01.435 13.875 6.785 8.88 10.4 10.515 17.01 12.785 1.785.567 3.413.487 4.7.302 1.435-.227 4.418-1.802 5.04-3.565.638-1.762.638-3.225.45-3.562-.185-.338-.675-.525-1.425-.863Z" fill="#FAFAFA"/></g><defs><clipPath id="a"><path fill="#fff" d="M0 0h60v60H0z"/></clipPath></defs></svg>