<svg width="60" height="60" fill="none" xmlns="http://www.w3.org/2000/svg"><path d="M30 60c16.569 0 30-13.431 30-30C60 13.431 46.569 0 30 0 13.431 0 0 13.431 0 30c0 16.569 13.431 30 30 30Z" fill="#4D76A1"/><path fill-rule="evenodd" clip-rule="evenodd" d="M28.867 43.157h2.354s.712-.078 1.075-.47c.334-.358.323-1.033.323-1.033s-.046-3.16 1.42-3.625c1.446-.458 3.303 3.053 5.27 4.404 1.488 1.022 2.618.798 2.618.798l5.26-.074s2.753-.17 1.448-2.333c-.107-.177-.76-1.6-3.911-4.526-3.299-3.061-2.857-2.566 1.116-7.862 2.42-3.225 3.387-5.194 3.085-6.038-.288-.803-2.068-.59-2.068-.59l-5.923.036s-.439-.06-.765.135c-.318.191-.523.636-.523.636s-.937 2.496-2.187 4.618c-2.638 4.48-3.693 4.715-4.123 4.437-1.003-.648-.753-2.603-.753-3.993 0-4.34.658-6.15-1.282-6.618-.644-.156-1.117-.259-2.764-.275-2.113-.022-3.902.006-4.915.503-.674.33-1.194 1.065-.877 1.107.391.053 1.278.24 1.748.88.607.825.585 2.68.585 2.68s.35 5.109-.814 5.744c-.798.435-1.894-.454-4.245-4.517-1.205-2.081-2.114-4.382-2.114-4.382s-.176-.43-.489-.66c-.38-.279-.91-.367-.91-.367l-5.629.037s-.845.023-1.155.39c-.276.327-.022 1.003-.022 1.003s4.407 10.31 9.396 15.505c4.576 4.763 9.77 4.45 9.77 4.45Z" fill="#fff"/></svg>