<svg width="220" height="250" viewBox="0 0 220 250" fill="none" xmlns="http://www.w3.org/2000/svg">
<path d="M25.3846 250H194.615C208.613 250 220 240.144 220 228.027V73.2422H160.769C146.772 73.2422 135.385 63.3857 135.385 51.2695V0H25.3846C11.387 0 0 9.85645 0 21.9727V228.027C0 240.144 11.387 250 25.3846 250ZM59.2308 103.027H160.769C165.446 103.027 169.231 106.303 169.231 110.352C169.231 114.4 165.446 117.676 160.769 117.676H59.2308C54.5538 117.676 50.7692 114.4 50.7692 110.352C50.7692 106.303 54.5538 103.027 59.2308 103.027ZM59.2308 132.324H160.769C165.446 132.324 169.231 135.6 169.231 139.648C169.231 143.697 165.446 146.973 160.769 146.973H59.2308C54.5538 146.973 50.7692 143.697 50.7692 139.648C50.7692 135.6 54.5538 132.324 59.2308 132.324ZM59.2308 161.621H160.769C165.446 161.621 169.231 164.897 169.231 168.945C169.231 172.994 165.446 176.27 160.769 176.27H59.2308C54.5538 176.27 50.7692 172.994 50.7692 168.945C50.7692 164.897 54.5538 161.621 59.2308 161.621ZM59.2308 190.918H126.923C131.6 190.918 135.385 194.194 135.385 198.242C135.385 202.291 131.6 205.566 126.923 205.566H59.2308C54.5538 205.566 50.7692 202.291 50.7692 198.242C50.7692 194.194 54.5538 190.918 59.2308 190.918Z" fill="#118C8C"/>
</svg>
