<svg width="220" height="250" viewBox="0 0 220 250" fill="none" xmlns="http://www.w3.org/2000/svg">
<path d="M64.4808 112.069H83.4457V146.552H64.4808V112.069Z" fill="#118C8C"/>
<path d="M98.6172 86.2061H117.582V146.551H98.6172V86.2061Z" fill="#118C8C"/>
<path d="M132.754 103.448H151.719V146.552H132.754V103.448Z" fill="#118C8C"/>
<path d="M166.891 77.5864H185.856V146.552H166.891V77.5864Z" fill="#118C8C"/>
<path d="M216.2 0H197.235V8.62068H207.044L170.684 49.9396L139.229 14.194C138.518 13.3859 137.553 12.9319 136.548 12.9319C135.542 12.9319 134.577 13.3859 133.866 14.194L91.0319 62.8706L67.1627 35.7457C66.4514 34.9376 65.4868 34.4836 64.4811 34.4836C63.4753 34.4836 62.5107 34.9376 61.7994 35.7457L8.69775 96.0904L14.061 102.185L64.4811 44.8879L88.3503 72.0129C89.0616 72.8209 90.0262 73.2749 91.0319 73.2749C92.0377 73.2749 93.0023 72.8209 93.7136 72.0129L136.548 23.3362L168.003 59.0818C168.714 59.8899 169.679 60.3439 170.684 60.3439C171.69 60.3439 172.655 59.8899 173.366 59.0818L212.407 14.7155V25.862H219.993V4.31034C219.993 3.16717 219.594 2.07082 218.882 1.26247C218.171 0.454124 217.206 0 216.2 0Z" fill="#118C8C"/>
<path d="M218.733 155.913C216.824 152.589 213.902 150.185 210.528 149.163C207.153 148.14 203.566 148.572 200.454 150.374L179.714 162.443C181.13 166.273 181.283 170.554 180.147 174.503C179.011 178.451 176.661 181.803 173.528 183.943L131.316 212.391C121.417 219.093 109.626 221.205 98.393 218.288L60.2508 207.913L62.0145 199.529L100.081 209.874C109.417 212.287 119.213 210.533 127.443 204.973L169.652 176.525C171.375 175.355 172.624 173.46 173.127 171.25C173.629 169.041 173.346 166.696 172.337 164.723C170.131 160.383 166.542 157.173 162.311 155.757C158.081 154.341 153.533 154.827 149.61 157.115L118.996 174.969C116.855 176.219 114.479 176.863 112.071 176.845C109.663 176.827 107.294 176.148 105.167 174.865L84.3059 162.275C77.3903 158.118 69.6362 156.095 61.8177 156.409C53.9991 156.723 46.3899 159.362 39.7498 164.063L51.6445 228.499L57.9788 226.947C61.3051 226.134 64.7298 225.98 68.1023 226.49L115.48 232.395C124.392 233.746 133.431 231.345 140.893 225.645L216.65 167.887C218.311 166.602 219.461 164.628 219.853 162.389C220.245 160.15 219.846 157.825 218.744 155.917L218.733 155.913Z" fill="#118C8C"/>
<path d="M0 157.272L17.1215 250L46.5512 242.802L29.4259 150.074L0 157.272ZM14.895 175.634L13.3361 167.203L20.759 165.431L22.3179 173.858L14.895 175.634Z" fill="#118C8C"/>
</svg>
