<svg width="30" height="30" fill="none" xmlns="http://www.w3.org/2000/svg"><path d="M30 15c0-.182-.003-.364-.01-.544C29.704 6.424 23.102 0 15 0S.296 6.424.01 14.456c-.007.18-.01.362-.01.544 0 8.284 7.705 14.456 15 14.456 7.427 0 15-6.172 15-14.456Z" fill="#FF5876"/><path d="M15 28.911C6.898 28.911.298 22.487.01 14.456c-.006.18-.01.362-.01.544 0 8.284 6.716 15 15 15 8.284 0 15-6.716 15-15 0-.182-.004-.364-.01-.544C29.702 22.488 23.101 28.91 15 28.91Z" fill="#E6485D"/><path d="M27.505 14.456C27.22 7.796 21.73 2.483 15 2.483S2.78 7.796 2.495 14.456c-.008.18 0 12.265 12.505 12.265s12.513-12.085 12.505-12.265Z" fill="#E4EEF9"/><path d="M15 26.428c-6.73 0-12.219-5.312-12.504-11.972-.008.18-.013.361-.013.544 0 6.913 5.604 12.517 12.517 12.517 6.913 0 12.517-5.604 12.517-12.517 0-.182-.005-.364-.013-.544C27.22 21.116 21.73 26.428 15 26.428Z" fill="#D5E0F2"/><path d="M19.547 10.608a.907.907 0 0 0-1.284.01l-2.129 2.158.214 1.027.995.332 2.212-2.243a.907.907 0 0 0-.008-1.284ZM13.716 12.858 8.888 8.556A.907.907 0 1 0 7.68 9.91l4.924 4.388 1.026-.342.086-1.098Z" fill="#405B6C"/><path d="M21.424 20.85a.452.452 0 0 1-.291-.106l-5.747-4.827a.453.453 0 1 1 .584-.695l5.746 4.827a.454.454 0 0 1-.292.8Z" fill="#86DCFF"/><path d="m12.604 14.298.847.755 1.088-.37-.059-1.144-.764-.68c-.532.319-.934.83-1.112 1.439ZM16.135 12.776l-.72.73v1.434h1.134l.794-.805a2.505 2.505 0 0 0-1.208-1.36Z" fill="#2D4456"/><path d="M16.452 14.456a1.55 1.55 0 0 0-2.904 0c-.063.17-.004 1.55 1.452 1.55s1.516-1.38 1.452-1.55Z" fill="#FF5876"/><path d="M15 15.462a1.55 1.55 0 0 1-1.452-1.006 1.55 1.55 0 1 0 2.904 0A1.55 1.55 0 0 1 15 15.462Z" fill="#E6485D"/><path d="M15.454 5.483V4.075a.455.455 0 0 0-.909 0v1.408a.455.455 0 0 0 .91 0ZM14.545 24.517v1.408a.455.455 0 0 0 .91 0v-1.408a.455.455 0 0 0-.91 0ZM25.925 15.454a.454.454 0 1 0 0-.909h-1.408a.455.455 0 1 0 0 .91h1.408ZM4.075 14.545a.454.454 0 1 0 0 .91h1.408a.454.454 0 1 0 0-.91H4.075Z" fill="#405B6C"/></svg>