<svg width="60" height="60" fill="none" xmlns="http://www.w3.org/2000/svg"><g clip-path="url(#a)"><path d="M3.75 4.082C-.965 8.98 0 14.182 0 29.987c0 13.125-2.29 26.283 9.695 29.38 3.742.963 36.903.963 40.64-.005 4.99-1.287 9.05-5.335 9.605-12.392.078-.985.078-32.963-.002-33.968-.59-7.517-5.218-11.85-11.316-12.727C47.226.072 46.946.012 39.776 0 14.343.012 8.768-1.12 3.75 4.082Z" fill="url(#b)"/><path d="M29.995 7.848c-9.078 0-17.698-.808-20.99 7.642-1.36 3.49-1.162 8.022-1.162 14.513 0 5.694-.183 11.047 1.162 14.51 3.285 8.455 11.975 7.645 20.985 7.645 8.692 0 17.655.904 20.988-7.645 1.362-3.526 1.162-7.99 1.162-14.51 0-8.655.477-14.243-3.72-18.438-4.25-4.25-9.998-3.717-18.435-3.717h.01ZM28.01 11.84c18.935-.03 21.345-2.135 20.015 27.107-.472 10.343-8.347 9.208-18.027 9.208-17.65 0-18.158-.505-18.158-18.163 0-17.862 1.4-18.142 16.17-18.157v.005Zm13.81 3.678a2.658 2.658 0 1 0 0 5.315 2.658 2.658 0 0 0 0-5.315Zm-11.825 3.107c-6.283 0-11.375 5.095-11.375 11.378 0 6.282 5.092 11.374 11.375 11.374s11.372-5.092 11.372-11.375c0-6.282-5.09-11.377-11.372-11.377Zm0 3.992c9.762 0 9.775 14.77 0 14.77-9.76 0-9.775-14.77 0-14.77Z" fill="#fff"/></g><defs><linearGradient id="b" x1="3.865" y1="56.167" x2="59.629" y2="7.905" gradientUnits="userSpaceOnUse"><stop stop-color="#FD5"/><stop offset=".5" stop-color="#FF543E"/><stop offset="1" stop-color="#C837AB"/></linearGradient><clipPath id="a"><path fill="#fff" d="M0 0h60v60H0z"/></clipPath></defs></svg>