<svg width="60" height="60" fill="none" xmlns="http://www.w3.org/2000/svg"><g clip-path="url(#a)"><path d="M30 60c16.568 0 30-13.432 30-30C60 13.43 46.567 0 30 0 13.43 0 0 13.431 0 30c0 16.568 13.431 30 30 30Z" fill="#41B4E6"/><path d="M60 30c0-.73-.027-1.455-.079-2.173L47.488 15.394 12.512 29.15l13.382 13.382.176.632.227-.23v.002l-.227.228 14.803 14.803C52.066 53.613 60 42.734 60 30Z" fill="#0091C8"/><path d="m27.087 34.37 13.557 10.237 6.844-29.213L12.512 29.15l10.643 3.525 19.423-13.028L27.086 34.37Z" fill="#fff"/><path d="m23.155 32.676 2.915 10.49 1.016-8.795 15.492-14.723-19.423 13.028Z" fill="#D2D2D7"/><path d="m31.493 37.698-5.423 5.467 1.016-8.794 4.407 3.327Z" fill="#B9B9BE"/></g><defs><clipPath id="a"><path fill="#fff" d="M0 0h60v60H0z"/></clipPath></defs></svg>