<svg width="60" height="60" viewBox="0 0 60 60" fill="none" xmlns="http://www.w3.org/2000/svg">
<g clip-path="url(#clip0_28:258)">
<path d="M3.75001 4.08225C-0.96499 8.97976 9.86457e-06 14.1823 9.86457e-06 29.9873C9.86457e-06 43.1123 -2.28999 56.2698 9.69501 59.3673C13.4375 60.3298 46.5975 60.3298 50.335 59.3623C55.325 58.0748 59.385 54.0273 59.94 46.9698C60.0175 45.9848 60.0175 14.0073 59.9375 13.0023C59.3475 5.48476 54.72 1.15225 48.6225 0.27475C47.225 0.07225 46.945 0.0122499 39.775 -0.000250123C14.3425 0.0122499 8.76751 -1.12025 3.75001 4.08225V4.08225Z" fill="url(#paint0_linear_28:258)"/>
<path d="M29.995 7.84755C20.9175 7.84755 12.2975 7.04005 9.00502 15.49C7.64502 18.98 7.84252 23.5125 7.84252 30.0025C7.84252 35.6975 7.66002 41.05 9.00502 44.5125C12.29 52.9675 20.98 52.1575 29.99 52.1575C38.6825 52.1575 47.645 53.0625 50.9775 44.5125C52.34 40.9875 52.14 36.5225 52.14 30.0025C52.14 21.3475 52.6175 15.76 48.42 11.565C44.17 7.31505 38.4225 7.84755 29.985 7.84755H29.995ZM28.01 11.84C46.945 11.81 49.355 9.70505 48.025 38.9475C47.5525 49.29 39.6775 48.155 29.9975 48.155C12.3475 48.155 11.84 47.65 11.84 29.9925C11.84 12.13 13.24 11.85 28.01 11.835V11.84ZM41.82 15.5175C40.3525 15.5175 39.1625 16.7075 39.1625 18.175C39.1625 19.6425 40.3525 20.8325 41.82 20.8325C43.2875 20.8325 44.4775 19.6425 44.4775 18.175C44.4775 16.7075 43.2875 15.5175 41.82 15.5175V15.5175ZM29.995 18.625C23.7125 18.625 18.62 23.72 18.62 30.0025C18.62 36.285 23.7125 41.3775 29.995 41.3775C36.2775 41.3775 41.3675 36.285 41.3675 30.0025C41.3675 23.72 36.2775 18.625 29.995 18.625V18.625ZM29.995 22.6175C39.7575 22.6175 39.77 37.3875 29.995 37.3875C20.235 37.3875 20.22 22.6175 29.995 22.6175Z" fill="white"/>
</g>
<defs>
<linearGradient id="paint0_linear_28:258" x1="3.86506" y1="56.1675" x2="59.6288" y2="7.90476" gradientUnits="userSpaceOnUse">
<stop stop-color="#FFDD55"/>
<stop offset="0.5" stop-color="#FF543E"/>
<stop offset="1" stop-color="#C837AB"/>
</linearGradient>
<clipPath id="clip0_28:258">
<rect width="60" height="60" fill="white"/>
</clipPath>
</defs>
</svg>
